<?xml version="1.0" standalone="no"?>
<!DOCTYPE svg PUBLIC "-//W3C//DTD SVG 20010904//EN"
 "http://www.w3.org/TR/2001/REC-SVG-20010904/DTD/svg10.dtd">
<svg version="1.0" xmlns="http://www.w3.org/2000/svg"
 width="20001.000000pt" height="20001.000000pt" viewBox="0 0 20001.000000 20001.000000"
 preserveAspectRatio="xMidYMid meet">

<g transform="translate(0.000000,20001.000000) scale(0.100000,-0.100000)"
fill="#000000" stroke="none">
<path d="M181660 125719 c-1543 -38 -3224 -279 -5310 -761 -2394 -552 -5008
-1306 -7930 -2287 -1732 -581 -2864 -983 -6660 -2364 -2780 -1011 -3651 -1324
-4870 -1747 -740 -256 -945 -330 -2020 -720 -1285 -467 -1682 -608 -2275 -805
-2061 -688 -3535 -1012 -5095 -1120 -1535 -106 -3100 -94 -4525 36 -3932 357
-7398 1596 -10410 3724 -471 333 -914 674 -1449 1118 -391 325 -548 446 -766
592 -374 250 -684 398 -1085 520 -65 19 -120 33 -123 30 -6 -6 19 -174 64
-430 410 -2309 1356 -3900 2954 -4970 314 -210 610 -376 1150 -644 772 -383
1583 -721 2595 -1081 234 -83 416 -145 1725 -589 404 -137 1075 -366 1490
-509 2227 -767 2890 -998 2890 -1003 0 -10 -927 -267 -2176 -603 -1826 -491
-2495 -685 -3339 -970 -259 -87 -405 -139 -911 -325 -598 -219 -1193 -352
-1849 -413 -214 -20 -845 -17 -1065 5 -954 96 -1800 353 -2745 836 -445 228
-802 442 -1300 779 -154 105 -489 331 -745 504 -862 581 -1139 773 -2125 1475
-1400 995 -1978 1390 -2695 1838 -595 372 -1345 794 -1678 945 -558 252 -1093
361 -1711 347 -338 -7 -612 -42 -956 -122 -817 -190 -1320 -530 -1494 -1012
-56 -153 -74 -268 -74 -458 0 -425 111 -754 559 -1660 348 -705 786 -1474
1322 -2325 231 -366 589 -908 1094 -1656 949 -1405 1325 -1988 1715 -2654 461
-789 602 -1104 606 -1350 2 -119 -17 -180 -79 -249 -54 -60 -136 -103 -249
-131 -196 -48 -443 -51 -1093 -15 -246 13 -577 31 -737 39 -1641 85 -2681 9
-3749 -272 l-178 -47 68 -63 c300 -275 592 -519 874 -729 1616 -1203 3539
-1853 5975 -2018 740 -50 1931 -69 2890 -45 2959 73 5946 416 10045 1156 5636
1017 10352 2124 18420 4324 2353 642 4147 1138 4460 1235 639 197 817 232
1133 222 142 -4 189 -9 272 -31 141 -37 277 -107 438 -225 800 -590 1656 -901
2767 -1005 302 -29 643 -39 1070 -33 433 6 485 9 1335 57 286 16 635 34 775
40 828 35 1331 105 1755 245 267 88 467 187 655 325 114 84 310 283 392 400
323 457 515 1090 658 2175 73 552 159 915 302 1275 307 774 829 1287 1608
1578 129 49 354 116 470 141 279 61 516 129 870 248 993 336 1149 386 3080
983 1625 502 2233 694 3135 987 2621 851 4650 1640 6450 2505 420 202 1926
966 2124 1077 650 366 1111 712 1461 1096 282 309 485 606 595 870 91 218 119
358 112 565 -6 178 -26 262 -102 416 -159 327 -458 585 -1012 875 -847 443
-2032 938 -2893 1207 -1304 409 -2570 614 -4035 652 -400 10 -394 10 -845 -1z"/>
<path d="M111545 103251 c-125 -26 -259 -71 -475 -158 -102 -41 -1065 -409
-2140 -818 -4113 -1564 -5790 -2208 -7785 -2988 -8009 -3133 -14208 -5806
-20000 -8623 -606 -294 -2625 -1304 -3220 -1609 -5474 -2813 -10248 -5625
-14835 -8740 -3529 -2397 -6367 -4617 -8785 -6874 -790 -738 -1717 -1665
-2421 -2421 -1224 -1317 -2432 -2786 -3259 -3966 -2413 -3438 -3808 -7284
-4094 -11284 -41 -569 -46 -731 -46 -1505 0 -774 5 -936 46 -1505 345 -4825
2312 -9378 5684 -13155 415 -465 1085 -1152 1596 -1636 3904 -3699 8614 -6633
15100 -9404 1468 -628 2727 -1132 6004 -2407 900 -350 1735 -677 2215 -867
140 -56 257 -100 261 -99 12 5 -65 225 -115 333 -61 131 -175 300 -272 404
-143 154 -309 278 -629 473 -77 47 -273 167 -435 268 -462 287 -1240 765
-2310 1420 -2929 1793 -4069 2514 -5745 3631 -2253 1503 -3940 2745 -5505
4053 -3870 3234 -6622 6718 -8087 10236 -747 1792 -1163 3561 -1289 5475 -21
326 -30 1279 -15 1642 112 2683 845 5397 2099 7768 1308 2475 3151 4718 5857
7130 3214 2866 6833 5572 10940 8182 4327 2749 9282 5455 15640 8541 11106
5389 22921 10058 35570 14055 1511 478 2568 802 2790 857 384 94 549 202 670
436 l35 69 -323 3 c-177 2 -540 -2 -807 -9 -307 -7 -736 -10 -1170 -6 -666 5
-813 10 -1315 42 -3017 193 -5581 967 -7815 2358 -249 155 -368 234 -666 439
-209 143 -336 211 -464 249 -108 31 -358 36 -485 10z"/>
<path d="M140645 90703 c-22 -2 -166 -22 -320 -43 -954 -133 -1747 -213 -2535
-254 -365 -20 -556 -26 -1115 -36 -343 -7 -500 -13 -580 -25 -865 -128 -1273
-602 -1335 -1550 -25 -392 -83 -610 -212 -806 -184 -279 -478 -426 -996 -499
-75 -10 -495 -46 -932 -80 -3163 -242 -5832 -514 -8215 -836 -733 -99 -708
-97 -1045 -98 -247 -1 -323 2 -400 16 -292 53 -505 158 -665 329 -118 126
-199 271 -264 474 -62 191 -82 304 -126 718 -43 406 -165 640 -390 747 -103
49 -168 62 -338 67 -251 9 -297 1 -1257 -212 -5465 -1212 -10439 -2593 -15165
-4212 -3975 -1362 -7419 -2766 -10835 -4418 -423 -205 -1689 -840 -2085 -1046
-2217 -1154 -4278 -2347 -6310 -3650 -115 -75 -290 -184 -388 -245 -282 -173
-452 -310 -565 -456 -57 -74 -126 -208 -155 -303 -55 -177 -58 -256 -36 -910
11 -323 13 -904 11 -2738 l-2 -2328 27 15 c16 7 168 73 338 146 404 173 482
210 775 372 5647 3117 12173 5791 20095 8232 9963 3070 20038 5061 30190 5965
2159 193 3066 246 3735 222 712 -27 1251 -110 1725 -266 590 -195 1113 -521
1487 -928 364 -396 668 -907 881 -1482 47 -127 135 -392 162 -487 21 -73 38
-94 128 -156 l75 -51 124 167 c341 456 572 829 799 1287 324 657 504 1254 585
1935 21 183 30 681 15 880 -53 699 -235 1356 -565 2044 -216 451 -462 845
-892 1431 -577 786 -913 1277 -1273 1859 -183 297 -312 468 -481 637 -187 188
-310 279 -522 385 -187 94 -408 158 -633 184 -84 9 -431 11 -520 3z"/>
<path d="M138410 80503 c-25 -1 -146 -10 -270 -18 -713 -49 -1901 -145 -2790
-226 -7999 -721 -15906 -2097 -23825 -4144 -8469 -2189 -16121 -4938 -23265
-8358 -957 -458 -1519 -738 -1865 -929 -1168 -647 -1886 -1290 -2264 -2027
-183 -357 -280 -685 -333 -1121 -17 -139 -17 -619 0 -780 33 -315 98 -663 182
-970 147 -540 166 -649 157 -915 -6 -190 -24 -299 -77 -456 -134 -403 -434
-760 -940 -1119 -58 -41 -352 -230 -655 -419 -5652 -3536 -11224 -7562 -17675
-12770 -477 -385 -524 -425 -660 -561 -375 -375 -568 -762 -625 -1248 -22
-185 -19 -388 15 -974 164 -2880 246 -5028 265 -6908 3 -316 11 -640 16 -719
41 -588 236 -922 619 -1062 274 -99 522 -115 1350 -84 1039 38 2219 69 3715
97 923 18 5196 18 6150 0 4386 -79 6837 -188 9735 -433 13543 -1143 25447
-4754 36035 -10929 430 -251 1292 -768 1665 -1000 641 -398 770 -469 969 -538
101 -35 113 -37 236 -37 124 0 133 1 190 29 117 57 223 184 309 368 73 157
128 322 286 863 700 2402 1463 4948 2768 9235 752 2467 1118 3675 2317 7635
2063 6814 3021 9967 4171 13740 76 247 131 467 150 599 22 149 15 319 -15 398
-74 191 -242 270 -581 269 -188 0 -344 -17 -685 -77 -13040 -2277 -27022
-5041 -41795 -8264 -4067 -887 -7591 -1672 -15925 -3545 -2779 -625 -4627
-1040 -6254 -1404 -222 -50 -410 -91 -418 -91 -8 0 9 30 43 73 31 39 94 122
139 182 44 61 95 122 113 136 19 17 90 47 179 77 81 27 488 166 903 307 8662
2948 17641 5678 26471 8049 9461 2540 19357 5128 26679 6976 1758 444 2045
520 4100 1095 1801 504 2490 690 3410 919 1915 479 3445 766 4940 926 329 35
410 50 539 96 151 54 232 106 352 224 159 158 236 290 382 660 47 118 288 728
535 1355 1234 3127 2921 7382 4407 11120 284 715 541 1372 572 1460 314 923
374 1783 177 2570 -124 492 -357 950 -680 1335 -105 124 -362 372 -494 474
-648 504 -1474 792 -2445 856 -137 9 -597 11 -705 3z"/>
<path d="M71763 75800 c-316 -33 -482 -171 -528 -438 -13 -73 -16 -213 -17
-803 -2 -672 1 -795 45 -2074 131 -3772 373 -11037 483 -14515 18 -577 15
-961 -11 -1140 -49 -347 -186 -515 -478 -589 -190 -49 -441 -67 -1067 -76
-228 -3 -633 -12 -900 -20 -267 -8 -656 -17 -865 -20 -418 -7 -507 -16 -633
-65 -180 -70 -281 -202 -298 -391 -5 -43 1 -120 17 -234 32 -225 34 -617 6
-760 -37 -186 -81 -298 -162 -420 -161 -242 -413 -377 -825 -442 -166 -26
-785 -26 -1130 1 -307 23 -544 19 -665 -13 -275 -73 -424 -239 -475 -533 -19
-105 -29 -2049 -23 -4259 l6 -2046 356 292 c1414 1157 2867 2291 4616 3600
1126 843 1992 1478 4355 3197 1656 1204 2033 1479 2781 2028 l375 275 -300 6
c-166 4 -516 12 -778 19 -485 13 -956 9 -1148 -10 -58 -6 -170 -20 -250 -32
-119 -18 -188 -22 -380 -22 -211 0 -243 2 -313 22 -291 81 -448 277 -512 638
-27 158 -34 411 -39 1499 -3 589 -10 1293 -16 1565 -17 825 -39 1755 -65 2750
-14 520 -41 1577 -60 2350 -57 2283 -113 4423 -195 7435 -77 2810 -69 2621
-112 2790 -57 230 -203 373 -425 420 -93 19 -265 26 -370 15z"/>
</g>
</svg>
